<svg width="24" height="24" viewBox="0 0 24 24" fill="none" xmlns="http://www.w3.org/2000/svg">
<path d="M22.6088 18.5258L17.5275 13.6531C17.2873 13.4228 16.9717 13.3 16.6473 13.3106C16.3228 13.3212 16.015 13.4643 15.7888 13.7098L12.7975 16.9543C12.0775 16.8093 10.63 16.3333 9.14 14.7658C7.65 13.193 7.19875 11.6623 7.065 10.9082L10.1388 7.75198C10.3718 7.51353 10.5077 7.1888 10.5177 6.84653C10.5277 6.50426 10.4111 6.1713 10.1925 5.91811L5.57375 0.560198C5.35505 0.30622 5.0511 0.152164 4.72644 0.130747C4.40178 0.10933 4.082 0.222241 3.835 0.445499L1.1225 2.89901C0.906391 3.12777 0.777401 3.43223 0.760002 3.75464C0.741252 4.08424 0.383752 11.8917 6.12375 17.9484C11.1313 23.2285 17.4038 23.6148 19.1313 23.6148C19.3838 23.6148 19.5388 23.6069 19.58 23.6042C19.8856 23.5862 20.1742 23.4495 20.39 23.2206L22.715 20.3584C22.9275 20.0987 23.0354 19.7617 23.0155 19.4193C22.9957 19.0769 22.8497 18.7563 22.6088 18.5258Z" fill="white"/>
</svg>
