<svg width="40" height="40" viewBox="0 0 40 40" fill="none" xmlns="http://www.w3.org/2000/svg">
<path d="M33.3334 20.0834C33.3021 17.5425 32.5455 15.0635 31.1525 12.9382C29.7596 10.813 27.7883 9.13005 25.471 8.0876C23.1536 7.04515 20.5866 6.68661 18.0722 7.0542C15.5579 7.42179 13.201 8.5002 11.279 10.1624C9.35707 11.8247 7.95012 14.0015 7.22388 16.4366C6.49764 18.8716 6.48235 21.4635 7.17981 23.907C7.87727 26.3504 9.25844 28.5437 11.1606 30.2285C13.0629 31.9133 15.4069 33.0195 17.9167 33.4167V23.9667H14.5834V20.0834H17.9167V17.1334C17.8396 16.4474 17.9139 15.7529 18.1346 15.0988C18.3552 14.4448 18.7167 13.8471 19.1935 13.348C19.6703 12.8489 20.2509 12.4606 20.8942 12.2104C21.5376 11.9602 22.228 11.8542 22.9167 11.9C23.9165 11.9137 24.9137 12.0029 25.9001 12.1667V15.5H24.2334C23.946 15.4638 23.6541 15.4926 23.3794 15.5843C23.1046 15.676 22.8539 15.8283 22.6459 16.0299C22.4379 16.2315 22.2779 16.4773 22.1776 16.749C22.0774 17.0208 22.0395 17.3116 22.0667 17.6V20.1167H25.7667L25.1667 24H22.0834V33.3334C25.2332 32.8351 28.1002 31.2245 30.1642 28.7935C32.2282 26.3625 33.3526 23.2723 33.3334 20.0834Z" fill="#265FC7"/>
</svg>
