<svg width="30" height="30" viewBox="0 0 30 30" fill="none" xmlns="http://www.w3.org/2000/svg">
<rect width="30" height="30" rx="15" fill="#033B5B"/>
<path d="M13.3333 20.8333C13.1386 20.8337 12.9499 20.7659 12.8 20.6416C12.7156 20.5717 12.6459 20.4858 12.5947 20.3888C12.5436 20.2919 12.5121 20.1858 12.5021 20.0766C12.492 19.9675 12.5036 19.8574 12.5361 19.7527C12.5686 19.6481 12.6215 19.5508 12.6917 19.4666L16.425 15L12.825 10.525C12.7558 10.4397 12.7041 10.3417 12.6729 10.2364C12.6417 10.1311 12.6316 10.0207 12.6432 9.91149C12.6549 9.8023 12.6879 9.69648 12.7406 9.60011C12.7932 9.50375 12.8644 9.41874 12.95 9.34997C13.0362 9.27411 13.1372 9.21688 13.2466 9.18189C13.356 9.1469 13.4714 9.1349 13.5856 9.14664C13.6999 9.15837 13.8105 9.1936 13.9105 9.2501C14.0104 9.3066 14.0977 9.38316 14.1667 9.47497L18.1917 14.475C18.3142 14.6241 18.3812 14.8111 18.3812 15.0041C18.3812 15.1972 18.3142 15.3842 18.1917 15.5333L14.025 20.5333C13.9414 20.6342 13.8352 20.7139 13.715 20.766C13.5949 20.8181 13.4641 20.8412 13.3333 20.8333Z" fill="white"/>
</svg>
