<svg width="16" height="16" viewBox="0 0 16 16" fill="none" xmlns="http://www.w3.org/2000/svg">
<g clip-path="url(#clip0_581_4420)">
<path d="M13.8093 7.22482L11.1909 9.55846L12.0182 12.9836C12.062 13.1627 12.052 13.3507 11.9895 13.5241C11.927 13.6975 11.8147 13.8486 11.6668 13.9586C11.5189 14.0685 11.3418 14.1324 11.1578 14.1423C10.9737 14.1522 10.7908 14.1076 10.632 14.0141L7.61851 12.229L4.64931 14.0764C4.49244 14.1732 4.31052 14.2216 4.1263 14.2155C3.94207 14.2095 3.76372 14.1493 3.61354 14.0424C3.46336 13.9355 3.34801 13.7868 3.28191 13.6147C3.21582 13.4427 3.20191 13.2549 3.24193 13.075L3.99661 9.63688L1.32954 7.35475C1.18849 7.23564 1.08575 7.07754 1.0342 6.90027C0.982648 6.723 0.984581 6.53446 1.03976 6.35829C1.09493 6.18211 1.2009 6.02615 1.34436 5.90996C1.48782 5.79377 1.66239 5.72252 1.84618 5.70515L5.32684 5.36713L6.65295 2.1094C6.7222 1.93846 6.84047 1.79184 6.99287 1.68798C7.14528 1.58413 7.32501 1.52768 7.50942 1.52576C7.69384 1.52384 7.8747 1.57653 8.02924 1.67719C8.18377 1.77785 8.30507 1.92198 8.37786 2.09144L9.77562 5.32081L13.2614 5.5863C13.4455 5.59984 13.6215 5.66744 13.7674 5.78062C13.9132 5.8938 14.0224 6.04752 14.0812 6.22251C14.1401 6.39749 14.1459 6.58596 14.0981 6.76426C14.0502 6.94256 13.9508 7.10277 13.8123 7.22479L13.8093 7.22482Z" fill="#DEA672"/>
<path d="M13.8093 7.22482L11.1909 9.55846L12.0182 12.9836C12.062 13.1627 12.052 13.3507 11.9895 13.5241C11.927 13.6975 11.8147 13.8486 11.6668 13.9586C11.5189 14.0685 11.3418 14.1324 11.1578 14.1423C10.9737 14.1522 10.7908 14.1076 10.632 14.0141L7.61851 12.229L4.64931 14.0764C4.49244 14.1732 4.31052 14.2216 4.1263 14.2155C3.94207 14.2095 3.76372 14.1493 3.61354 14.0424C3.46336 13.9355 3.34801 13.7868 3.28191 13.6147C3.21582 13.4427 3.20191 13.2549 3.24193 13.075L3.99661 9.63688L1.32954 7.35475C1.18849 7.23564 1.08575 7.07754 1.0342 6.90027C0.982648 6.723 0.984581 6.53446 1.03976 6.35829C1.09493 6.18211 1.2009 6.02615 1.34436 5.90996C1.48782 5.79377 1.66239 5.72252 1.84618 5.70515L5.32684 5.36713L6.65295 2.1094C6.7222 1.93846 6.84047 1.79184 6.99287 1.68798C7.14528 1.58413 7.32501 1.52768 7.50942 1.52576C7.69384 1.52384 7.8747 1.57653 8.02924 1.67719C8.18377 1.77785 8.30507 1.92198 8.37786 2.09144L9.77562 5.32081L13.2614 5.5863C13.4455 5.59984 13.6215 5.66744 13.7674 5.78062C13.9132 5.8938 14.0224 6.04752 14.0812 6.22251C14.1401 6.39749 14.1459 6.58596 14.0981 6.76426C14.0502 6.94256 13.9508 7.10277 13.8123 7.22479L13.8093 7.22482Z" fill="#DEA672"/>
<path d="M13.8093 7.22482L11.1909 9.55846L12.0182 12.9836C12.062 13.1627 12.052 13.3507 11.9895 13.5241C11.927 13.6975 11.8147 13.8486 11.6668 13.9586C11.5189 14.0685 11.3418 14.1324 11.1578 14.1423C10.9737 14.1522 10.7908 14.1076 10.632 14.0141L7.61851 12.229L4.64931 14.0764C4.49244 14.1732 4.31052 14.2216 4.1263 14.2155C3.94207 14.2095 3.76372 14.1493 3.61354 14.0424C3.46336 13.9355 3.34801 13.7868 3.28191 13.6147C3.21582 13.4427 3.20191 13.2549 3.24193 13.075L3.99661 9.63688L1.32954 7.35475C1.18849 7.23564 1.08575 7.07754 1.0342 6.90027C0.982648 6.723 0.984581 6.53446 1.03976 6.35829C1.09493 6.18211 1.2009 6.02615 1.34436 5.90996C1.48782 5.79377 1.66239 5.72252 1.84618 5.70515L5.32684 5.36713L6.65295 2.1094C6.7222 1.93846 6.84047 1.79184 6.99287 1.68798C7.14528 1.58413 7.32501 1.52768 7.50942 1.52576C7.69384 1.52384 7.8747 1.57653 8.02924 1.67719C8.18377 1.77785 8.30507 1.92198 8.37786 2.09144L9.77562 5.32081L13.2614 5.5863C13.4455 5.59984 13.6215 5.66744 13.7674 5.78062C13.9132 5.8938 14.0224 6.04752 14.0812 6.22251C14.1401 6.39749 14.1459 6.58596 14.0981 6.76426C14.0502 6.94256 13.9508 7.10277 13.8123 7.22479L13.8093 7.22482Z" fill="#DEA672"/>
<path d="M13.8093 7.22482L11.1909 9.55846L12.0182 12.9836C12.062 13.1627 12.052 13.3507 11.9895 13.5241C11.927 13.6975 11.8147 13.8486 11.6668 13.9586C11.5189 14.0685 11.3418 14.1324 11.1578 14.1423C10.9737 14.1522 10.7908 14.1076 10.632 14.0141L7.61851 12.229L4.64931 14.0764C4.49244 14.1732 4.31052 14.2216 4.1263 14.2155C3.94207 14.2095 3.76372 14.1493 3.61354 14.0424C3.46336 13.9355 3.34801 13.7868 3.28191 13.6147C3.21582 13.4427 3.20191 13.2549 3.24193 13.075L3.99661 9.63688L1.32954 7.35475C1.18849 7.23564 1.08575 7.07754 1.0342 6.90027C0.982648 6.723 0.984581 6.53446 1.03976 6.35829C1.09493 6.18211 1.2009 6.02615 1.34436 5.90996C1.48782 5.79377 1.66239 5.72252 1.84618 5.70515L5.32684 5.36713L6.65295 2.1094C6.7222 1.93846 6.84047 1.79184 6.99287 1.68798C7.14528 1.58413 7.32501 1.52768 7.50942 1.52576C7.69384 1.52384 7.8747 1.57653 8.02924 1.67719C8.18377 1.77785 8.30507 1.92198 8.37786 2.09144L9.77562 5.32081L13.2614 5.5863C13.4455 5.59984 13.6215 5.66744 13.7674 5.78062C13.9132 5.8938 14.0224 6.04752 14.0812 6.22251C14.1401 6.39749 14.1459 6.58596 14.0981 6.76426C14.0502 6.94256 13.9508 7.10277 13.8123 7.22479L13.8093 7.22482Z" fill="#DEA672"/>
</g>
<defs>
<clipPath id="clip0_581_4420">
<rect width="15" height="15" fill="white" transform="translate(0 0.66626) rotate(-0.596511)"/>
</clipPath>
</defs>
</svg>
